<svg xmlns="http://www.w3.org/2000/svg" width="24" height="24" fill="currentColor" viewBox="1.98 1.98 6.04 6.04"><path d="M4.453 2.445c.099-.623.995-.623 1.094 0a.554.554 0 0 0 .872.361c.51-.37 1.145.264.775.774a.554.554 0 0 0 .361.872c.623.1.623.996 0 1.095a.554.554 0 0 0-.361.873c.37.51-.264 1.144-.775.774a.554.554 0 0 0-.872.361c-.099.623-.995.623-1.094 0a.554.554 0 0 0-.872-.361c-.51.37-1.145-.264-.775-.774a.554.554 0 0 0-.361-.873c-.623-.099-.623-.996 0-1.095a.554.554 0 0 0 .361-.872c-.37-.51.264-1.144.775-.774a.554.554 0 0 0 .872-.361M5 3.8a1.2 1.2 0 1 0 0 2.4 1.2 1.2 0 0 0 0-2.4"/></svg>