<svg xmlns="http://www.w3.org/2000/svg" width="24" height="24" fill="currentColor" viewBox="2.00 2.00 6.00 6.00"><path d="M5.553 2.523a1 1 0 0 1 .894 0l1 .5A1 1 0 0 1 8 3.918v3.135a.4.4 0 0 1-.58.357l-.973-.486a1 1 0 0 0-.894 0l-1.106.553a1 1 0 0 1-.894 0l-1-.5A1 1 0 0 1 2 6.082V2.947a.4.4 0 0 1 .58-.358l.973.487a1 1 0 0 0 .894 0zm.72 1.345a.5.5 0 0 0-.706-.042l-.252.225c-.142.126-.213.189-.298.195h-.036c-.085-.006-.156-.07-.297-.196l-.252-.224a.5.5 0 0 0-.664.748l.08.072c.175.156.263.234.271.333v.042c-.008.1-.096.178-.27.334l-.081.072a.5.5 0 0 0 .664.747l.252-.224c.141-.127.212-.19.297-.196h.036c.085.006.156.07.298.195l.252.225a.5.5 0 0 0 .664-.747l-.08-.072c-.176-.156-.264-.234-.272-.334V4.98c.009-.1.097-.178.272-.334l.08-.07a.5.5 0 0 0 .042-.707"/></svg>