<svg xmlns="http://www.w3.org/2000/svg" width="24" height="24" fill="currentColor" viewBox="2.00 2.00 6.00 6.00"><path d="M6.1 2.1c.845 0 1.269 0 1.55.24q.06.05.11.11C8 2.732 8 3.156 8 4v2c0 .846 0 1.269-.24 1.55a1 1 0 0 1-.11.11c-.281.24-.704.24-1.55.24H4.66c-.338 0-.507 0-.62-.096a.4.4 0 0 1-.044-.044C3.9 7.647 3.9 7.478 3.9 7.14V2.86c0-.338 0-.507.096-.62a.4.4 0 0 1 .045-.044c.112-.096.281-.096.62-.096zm-3 4.99c0 .372 0 .559-.181.677a.6.6 0 0 1-.107.05c-.208.06-.292-.012-.461-.156a1 1 0 0 1-.112-.112C2 7.27 2 6.846 2 6V4c0-.845 0-1.269.24-1.55q.05-.06.11-.11c.17-.145.255-.217.462-.156a.6.6 0 0 1 .106.048c.182.119.182.305.182.678zM5.05 4.5a.45.45 0 1 0 0 .9h1.1a.45.45 0 0 0 0-.9zm0-1.6a.45.45 0 0 0 0 .9h1.9a.45.45 0 0 0 0-.9z"/></svg>